<svg version="1.0" xmlns="http://www.w3.org/2000/svg" width="682.7" height="682.7" viewBox="0 0 512 512"><path stroke="#000" d="M193.1 1.1a53.9 53.9 0 0 0-24 13c-9.7 9.7-14 22.1-14.1 40.1V62h-30.2c-34.1 0-41.6.8-50.6 5a52 52 0 0 0-21.5 21.3 45.5 45.5 0 0 0 9 52.1A51.7 51.7 0 0 0 80.9 152c.8 0 1.1 42.2 1.3 154.2l.3 154.3 2.7 8a65 65 0 0 0 16.8 26.9c7.9 7.4 16.2 12 26.6 14.6 7.5 1.9 11.5 2 127.4 2s119.9-.1 127.4-2a61.9 61.9 0 0 0 45.6-52.7c.6-4.2 1-63.9 1-156V152.2l3.8-1.3a47 47 0 0 0 29.3-35.9 46.8 46.8 0 0 0-20.2-45.1c-10.9-6.9-12.6-7.2-51-7.7l-34.6-.4-.6-11.7a53.3 53.3 0 0 0-7.7-28.2A49.5 49.5 0 0 0 318.1 1c-6.6-1.2-118.6-1.2-125 .1zm126.4 25.1c9 4.9 12.6 11.8 13.3 25.5l.5 10.3H178.8l.3-10.8c.4-9.5.7-11.2 3.2-15.4 1.5-2.6 4.1-5.7 5.8-6.9 6.9-4.9 6.6-4.9 69.4-4.6 52.8.2 59.3.4 62 1.9zm108 62.5a20 20 0 0 1 10.1 10.8 22 22 0 0 1-7.5 26l-4.3 3-167.6.3c-117.1.2-168.8 0-171.4-.8A21.1 21.1 0 0 1 73 103.1a22.3 22.3 0 0 1 16.5-16.2c1.7-.4 77.5-.6 168.5-.6l165.5.2 4 2.2zm-21.7 211.8c.2 100.3-.1 149.2-.8 154a37.8 37.8 0 0 1-20.8 29.7l-6.7 3.3-118.9.3c-129 .3-125.6.4-134.3-5.1a42 42 0 0 1-17.2-25.5c-.8-3.8-1.1-47.9-1.1-154.8V153l149.8.2 149.7.3.3 147z"/><path d="M177.2 188.9a16 16 0 0 0-3.6 6.2c-.3 1.7-.6 54.2-.6 116.6 0 120.9-.1 117.2 4.7 121.6 3.1 2.7 8.4 3.2 12.6 1.2 7.1-3.4 6.7 4.7 6.7-124 0-125.5.3-119.1-5.4-122.9-1.4-.9-4.5-1.6-7-1.6-3.6 0-5 .6-7.4 2.9zm71.6-.6a18 18 0 0 0-3.7 4.4c-.8 1.5-1.1 36.1-1.1 117.8 0 128.7-.4 120.6 6.7 124 4.2 2 9.5 1.5 12.6-1.2 4.8-4.4 4.7-.7 4.7-121.6 0-62.4-.3-114.9-.6-116.6a16 16 0 0 0-3.6-6.2 11.7 11.7 0 0 0-15-.6zm69.6 1.1-3.4 3.4v117.1c0 100.7.2 117.6 1.5 120 1.5 3.1 6.9 6.1 10.8 6.1 3.7 0 9-4.1 10.4-8 1.6-4.6 1.8-227.6.3-233.2a11.8 11.8 0 0 0-11.7-8.8c-3.8 0-5 .5-7.9 3.4z"/></svg>