<svg version="1.0" xmlns="http://www.w3.org/2000/svg" width="682.7" height="682.7" viewBox="0 0 512 512"><path d="M425.3 4c-7.8 2-11.4 3.7-18.3 8.3-4.4 2.9-232.3 229.6-236.1 234.9-2.1 2.9-32.9 112.2-32.9 116.8 0 5.6 6.5 12 12.2 12 4.4 0 113.8-30.9 116.6-32.9 1.5-1.1 54.3-53.6 117.4-116.8 83.7-83.8 115.7-116.5 118.7-121.2a59.8 59.8 0 0 0 8.2-40.7c-.7-3.9-3-10.5-5.3-15.4-3.6-7.6-5.5-9.9-18.2-22.6-12.7-12.7-15-14.5-22.6-18.2A54.7 54.7 0 0 0 425.3 4zm29 27.2A143 143 0 0 1 483.1 60c2 3.8 2.4 6 2.4 14 0 12.1-1.8 16-13.2 27.9l-8.2 8.6-30.3-30.3-30.3-30.3 8.8-8.4A83.3 83.3 0 0 1 425.5 31a34.1 34.1 0 0 1 28.8.2zM416 98.5l29.5 29.5-93.3 93.2-93.2 93.3-29.5-29.5a632.9 632.9 0 0 1-29.5-30.5C200 253.2 384.2 69 385.5 69c.6 0 14.3 13.3 30.5 29.5zM233.8 326.9c-3.7 1.2-64.3 17.9-64.5 17.8-.1-.1 3-11.5 6.8-25.2l9.1-32.9 2.1-7.8 23.8 23.8a249.5 249.5 0 0 1 22.7 24.3z"/><path d="M48 53.6A64.3 64.3 0 0 0 3.6 95l-3.1 8.5V281c0 169.3.1 177.8 1.8 183.4 3.7 12 7.7 18.7 16.7 27.7a56.1 56.1 0 0 0 15.7 12.1c14.6 7.3.3 6.9 211.3 6.6l189.5-.3 6.7-2.6a66 66 0 0 0 40.1-40.9c2.2-6.4 2.2-7.4 2.5-71 .3-57.9.2-64.8-1.3-67.6-2.1-4-6.4-6.4-11.4-6.4-3.3 0-4.9.7-7.9 3.4l-3.7 3.4-.5 63.4c-.5 63.1-.5 63.3-2.8 69a39 39 0 0 1-22 22l-5.7 2.3-183.4.3c-121.1.1-185.3-.1-189-.8a38.5 38.5 0 0 1-27.7-21.3l-2.9-6.2v-352l2.9-6.3a42 42 0 0 1 20.3-19.4l5.8-2.3 63-.5c70.4-.6 66.4-.1 70-7.7 2.3-4.8 1.3-9.5-3.1-13.8l-3.5-3.5-64.2.1c-53.3 0-65.1.3-69.7 1.5z"/></svg>