<svg xmlns="http://www.w3.org/2000/svg" width="682.7" height="682.7" viewBox="0 0 512 512"><path d="M235 96.6a284.6 284.6 0 0 0-157.4 64.7 439 439 0 0 0-50 50.2c-11.8 14.9-26.4 36.8-27.2 41-.3 1.9-.3 5.1 0 7 .8 4.2 15.4 26.1 27.2 41a439 439 0 0 0 50 50.2 286.8 286.8 0 0 0 141.9 63 371 371 0 0 0 73 0c34.8-5.1 66-15.4 95-31.4A334.3 334.3 0 0 0 502 276.2c13-19.5 13-20.9 0-40.4a307.4 307.4 0 0 0-42-50.9c-48-48.3-102-76.5-164-86-13.1-2-49.6-3.3-61-2.3zm46.2 32.9a253.7 253.7 0 0 1 130.7 55.4 350.8 350.8 0 0 1 60 63.5l5.2 7.6-4.1 6a331 331 0 0 1-73.5 74.6A245.5 245.5 0 0 1 234.4 383c-57.7-5.5-110.3-31-156.8-76a344.6 344.6 0 0 1-37.5-43.5l-5.2-7.5 5-7.3a282 282 0 0 1 35.5-41.3 272.5 272.5 0 0 1 74.2-54.2 236.4 236.4 0 0 1 131.6-23.7z"/><path d="M239.3 161.5a92.2 92.2 0 0 0-51.3 27.4 96 96 0 0 0-25.7 45.7c-2.4 9.5-2.4 33.3 0 42.8a96 96 0 0 0 25.7 45.7 92.1 92.1 0 0 0 63.5 28.6 91.7 91.7 0 0 0 72-28.2 93 93 0 0 0 26.2-46.1c2.4-9.5 2.4-33.3 0-42.8-2.5-9.9-7.2-21-12.5-29.6a114 114 0 0 0-31.1-30.8 97.5 97.5 0 0 0-66.8-12.7zm30.2 32a66.5 66.5 0 0 1 47.8 44 74.8 74.8 0 0 1 0 37 67.1 67.1 0 0 1-42.8 42.8 53.5 53.5 0 0 1-19 2.2c-10.4-.1-13-.5-19.3-2.7a64.8 64.8 0 0 1-25.7-16.3 63 63 0 0 1 .5-89.5c15.5-15.6 37-22 58.5-17.5z"/></svg>